<svg xmlns="http://www.w3.org/2000/svg" width="16.916" height="15.925" viewBox="0 0 16.916 15.925"><defs><style>.a{fill:;}</style></defs><path class="a" d="M142.134,135.832a3.655,3.655,0,0,1-.1-2.151,2.66,2.66,0,0,0-1.641-3.223c.117-.418.647-.9.289-1.068l-2.1-1c-.459-.219-1.659-.172-1.8.116s-.527.886.455,1.109a4.332,4.332,0,0,1,1.9,1.359,3.1,3.1,0,0,0,1.007.511c.988.483.922.96.938,2.007a6.156,6.156,0,0,0,.194,2.848c.638,1.409.967,2.526.416,3.058a1.708,1.708,0,0,1-2.164.07c-.777-.509-1.08-1.74-1.009-3.229a6.82,6.82,0,0,0-.171-2.459c-.56-1.648-1.464-1.42-1.542-1.42h-.763v-5.846a.642.642,0,0,0-.646-.622H128.2a.628.628,0,0,0-.63.622v13.81h-.849a.614.614,0,0,0-.63.622v.871h11.441v-.871a.594.594,0,0,0-.615-.622h-.879v-6.967h.756c.092,0,.379.039.644.82a5.953,5.953,0,0,1,.107,2.005c-.07,1.452-.149,3.1,1.281,4.034a3.3,3.3,0,0,0,1.8.561,2.187,2.187,0,0,0,1.733-.655c1.412-1.365.116-3.523-.232-4.289m-2.579-5.158a.311.311,0,1,1,.315-.311.313.313,0,0,1-.315.311m-10.486-2.715a.581.581,0,0,1,.584-.576h4.325a.582.582,0,0,1,.584.576v3.329a.582.582,0,0,1-.584.576h-4.325a.581.581,0,0,1-.584-.576Z" transform="translate(-126.094 -125.891)"/></svg>