<svg id="CFF" xmlns="http://www.w3.org/2000/svg" width="65.124" height="24.012" viewBox="0 0 65.124 24.012">
  <path id="C" d="M19.548,24.012V19.728H12.2a7.169,7.169,0,0,1-4.5-1.152Q5.652,16.92,5.652,11.592q0-3.96,1.332-5.472,1.584-1.836,5-1.836h7.56V0H11.412A14.7,14.7,0,0,0,5.526,1.008a8.067,8.067,0,0,0-3.654,3.2A14.726,14.726,0,0,0,0,12.06a16.565,16.565,0,0,0,1.224,6.768,8.322,8.322,0,0,0,6.3,4.932,19.8,19.8,0,0,0,3.636.252h8.388Z" transform="translate(0 0)" fill="#ff8465"/>
  <path id="FF" d="M22.9,24.012V11.484q.036-5.4,1.008-7.092A7.093,7.093,0,0,1,27.45,1.008,16.89,16.89,0,0,1,33.984,0H42.3V4.284H34.632a13.273,13.273,0,0,0-4.572.576q-2.016.828-2.088,3.672v1.3H42.3v4.284H27.972v9.9Zm-22.9,0V11.484q.036-5.4,1.008-7.092A7.093,7.093,0,0,1,4.554,1.008,16.89,16.89,0,0,1,11.088,0H19.4V4.284H11.736a13.273,13.273,0,0,0-4.572.576q-2.016.828-2.088,3.672v1.3H19.4v4.284H5.076v9.9Z" transform="translate(22.824 0)" fill="#fff"/>
</svg>
