<svg xmlns="http://www.w3.org/2000/svg" width="20" height="20" viewBox="0 0 20 20"><defs><style>.a{fill:#566570;}</style></defs><path class="a" d="M17.745,0H7.279A2.245,2.245,0,0,0,5.022,2.235V3.4H1.941A1.932,1.932,0,0,0,0,5.327V18.076A1.932,1.932,0,0,0,1.941,20H14.8a1.932,1.932,0,0,0,1.941-1.924V15.044h1A2.246,2.246,0,0,0,20,12.81V2.235A2.243,2.243,0,0,0,17.745,0ZM12.23,13.989a.733.733,0,0,1-.763.623H4.83a.793.793,0,0,1-.551-.216.624.624,0,0,1-.2-.508.732.732,0,0,1,.763-.623h6.637a.8.8,0,0,1,.551.216A.64.64,0,0,1,12.23,13.989Zm0-4.041a.733.733,0,0,1-.763.623H4.83a.793.793,0,0,1-.551-.216.624.624,0,0,1-.2-.508.732.732,0,0,1,.763-.623h6.637a.8.8,0,0,1,.551.216A.64.64,0,0,1,12.23,9.948Zm6.412,2.539a.782.782,0,0,1-.785.778H16.745V5.136a1.9,1.9,0,0,0-1.907-1.89H6.794V2.125a.782.782,0,0,1,.785-.778H17.856a.782.782,0,0,1,.785.778Z"/></svg>