<svg xmlns="http://www.w3.org/2000/svg" width="20" height="20" viewBox="0 0 20 20"><defs><style>.a{fill:none;}.b{fill:#fea267;}</style></defs><rect class="a" width="20" height="20"/><path class="b" d="M116.45,12.672A6.776,6.776,0,0,1,113.067,6.8a6.959,6.959,0,0,1,7-6.8,6.884,6.884,0,0,1,6.958,6.836,6.875,6.875,0,0,1-3.383,5.876,3.3,3.3,0,0,1-.807,1.6H117.3A3.514,3.514,0,0,1,116.45,12.672Zm8.611-5.2a5.157,5.157,0,0,0-5.036-5.237c-.423,0-.615.2-.615.64,0,.12.192.32.615.32a4.107,4.107,0,0,1,4,4.277c0,.12.192.32.615.32A.485.485,0,0,0,125.061,7.475Zm-8,8.395a.675.675,0,0,1,.615-.64h4.613a.6.6,0,0,1,.615.64.675.675,0,0,1-.615.64h-4.5C117.372,16.509,117.065,16.309,117.065,15.87Zm5.766,1.6a3.171,3.171,0,0,1-2.768,1.719,3.02,3.02,0,0,1-2.653-1.6h5.42Z" transform="translate(-109.962 0.515)"/></svg>